<svg version="1.1" id="Layer_1" xmlns="http://www.w3.org/2000/svg" xmlns:xlink="http://www.w3.org/1999/xlink" x="0px" y="0px"
	 width="100%" viewBox="0 0 1080 1080" enable-background="new 0 0 1080 1080" xml:space="preserve">
<path fill="#47704C" opacity="1.000000" stroke="none" 
	d="
M744.000000,1081.000000 
	C496.028564,1081.000000 248.557114,1081.000000 1.042840,1081.000000 
	C1.042840,721.070129 1.042840,361.140198 1.042840,1.105153 
	C360.888306,1.105153 720.776672,1.105153 1080.832520,1.105153 
	C1080.832520,360.999939 1080.832520,720.999939 1080.832520,1081.000000 
	C968.806396,1081.000000 856.653198,1081.000000 744.000000,1081.000000 
M410.338623,329.750458 
	C405.938599,323.962189 401.307404,318.331696 397.213409,312.334503 
	C394.069275,307.728790 389.700409,303.969910 384.815155,303.379852 
	C380.082153,302.808228 375.121582,302.438385 369.541351,305.367645 
	C361.422546,309.629608 358.189362,316.081635 355.111481,323.320770 
	C353.756439,326.507843 356.898590,329.945435 360.566010,330.015564 
	C362.725189,330.056824 364.885468,330.042847 366.997559,330.002930 
	C366.997559,330.002930 366.946808,329.955231 366.974121,330.896179 
	C366.975708,334.224640 367.126282,337.561371 366.941559,340.879456 
	C366.703339,345.157410 367.443604,348.684631 371.121429,351.654083 
	C375.128448,354.889282 387.199158,355.132538 390.917389,351.449432 
	C394.569153,347.832153 398.243927,344.237885 401.937500,340.663361 
	C402.263367,340.347961 402.786469,340.194153 403.245972,340.065399 
	C410.398254,338.061218 411.139923,337.085266 411.631348,330.176392 
	C415.463165,333.817047 420.365417,334.243225 423.348633,331.195068 
	C425.551788,328.943939 425.900757,322.045715 423.397064,320.340942 
	C419.729126,317.843475 420.836365,313.193878 418.099335,310.316681 
	C416.740540,308.888214 416.184265,306.696350 415.264893,304.849854 
	C414.009735,301.453644 412.676331,296.934265 417.124115,294.934052 
	C420.633942,293.355743 421.134064,290.049408 422.386261,287.489777 
	C423.206818,285.812531 421.684387,282.674530 420.561981,280.530731 
	C420.165497,279.773529 417.782928,279.655182 416.410583,279.879089 
	C410.321625,280.872620 406.533966,288.062958 399.325897,286.323944 
	C399.038910,286.254700 398.394012,287.182983 398.094177,287.742096 
	C397.105164,289.586304 396.198151,291.474487 395.321838,293.221710 
	C397.184631,297.024811 399.213531,300.826996 400.932922,304.764313 
	C403.028870,309.563995 404.872314,314.474274 406.810486,319.342468 
	C408.222443,322.888916 409.610962,326.444702 410.338623,329.750458 
M654.601318,367.638153 
	C651.807678,371.275757 649.831238,375.195801 651.028931,379.938690 
	C651.385437,381.350769 652.212402,383.689178 652.989502,383.759003 
	C655.590149,383.992645 658.751465,384.191284 660.809570,382.940918 
	C664.849670,380.486420 668.291809,377.047791 672.581055,374.613831 
	C669.720032,379.585083 665.988098,384.265472 664.207031,389.597473 
	C661.687500,397.140625 665.982544,403.977356 669.751526,409.985535 
	C674.288452,417.217621 682.568665,419.288635 690.471741,421.551086 
	C689.058167,422.671967 687.761230,424.481415 686.139221,424.846588 
	C680.213379,426.180603 674.179138,427.033112 667.788330,428.135529 
	C667.788330,432.582001 667.788330,436.653717 667.788330,442.013580 
	C674.125793,440.538696 679.404602,439.310120 684.859314,438.040649 
	C681.929688,451.810211 692.958557,466.745453 704.285645,468.545929 
	C702.251343,470.185242 700.265869,471.990234 698.076721,473.499634 
	C695.034363,475.597290 696.019897,479.839813 694.254578,481.684143 
	C691.501648,484.560425 691.534485,487.508606 690.861206,490.804230 
	C689.518372,497.377167 694.162109,501.861694 695.962708,507.292847 
	C697.385193,511.583282 701.218628,513.098999 705.493164,511.898865 
	C707.347473,511.378235 708.832886,509.543610 710.915955,507.983734 
	C710.883667,514.665833 714.715271,515.943420 719.722961,514.955872 
	C723.739441,514.163818 727.646790,512.807861 731.578369,511.621765 
	C731.839966,511.542847 731.760864,510.619659 732.068604,510.364899 
	C735.282715,507.704102 737.337158,504.402679 739.347046,500.686310 
	C740.897461,497.819611 742.149658,495.411469 742.056824,492.169037 
	C741.916504,487.265717 742.091797,482.754791 738.453674,478.312561 
	C734.776245,473.822418 732.456299,468.429901 725.711853,467.762634 
	C724.818481,467.674255 724.045227,466.372711 723.353333,465.755280 
	C725.152405,463.766876 726.940491,461.995178 728.482361,460.030334 
	C730.088806,457.983185 732.095825,455.935669 732.789429,453.556458 
	C733.994873,449.421021 735.059998,444.986908 734.809753,440.759338 
	C734.571777,436.738800 733.758423,430.987762 731.089905,429.267303 
	C726.477539,426.293671 728.068115,422.780518 728.181274,419.568970 
	C728.344055,414.948456 726.319519,413.655334 722.329834,414.000763 
	C720.726074,414.139648 719.107788,414.399933 717.558899,414.830688 
	C712.336243,416.283142 707.474060,419.952362 701.271240,417.269104 
	C704.918701,413.040619 713.221375,412.596405 711.261841,405.346741 
	C712.882019,403.965607 714.984497,402.845428 714.848877,402.184509 
	C713.573181,395.967529 718.734802,388.478485 711.315674,383.446991 
	C711.031921,383.254578 711.263611,382.413422 711.005188,382.054718 
	C709.029602,379.312836 707.462830,375.957214 704.844788,374.084778 
	C702.073181,372.102631 697.855835,372.156830 695.052856,370.200043 
	C691.990967,368.062469 689.719421,368.365753 686.658508,369.681274 
	C683.968384,370.837433 680.901978,371.088928 678.048828,371.904510 
	C675.949890,372.504486 673.926880,373.369965 672.185120,373.404114 
	C682.971619,364.269897 693.758057,355.135681 705.534241,345.163422 
	C704.757080,343.063293 704.414856,338.504120 702.433777,337.620880 
	C699.319275,336.232300 695.145508,335.896942 691.652771,339.316467 
	C688.151123,342.744781 683.551697,345.020966 679.697693,348.129730 
	C676.434326,350.762085 673.687439,354.029297 670.461365,356.714508 
	C666.251465,360.218567 661.850342,363.504059 657.392517,366.689087 
	C656.581116,367.268768 655.103455,366.915924 654.020752,366.245453 
	C655.862610,363.291504 656.517395,359.570496 661.585754,359.477631 
	C663.747070,359.438019 666.050659,356.302734 667.937195,354.250305 
	C672.781494,348.980103 670.838501,342.373840 670.957520,336.268219 
	C671.173340,325.201904 662.822571,316.757233 651.799622,317.075012 
	C646.219177,317.235870 640.860474,316.421387 635.034241,319.542542 
	C629.061462,322.742157 625.284546,328.132446 624.607910,332.618408 
	C623.479187,340.102081 621.101013,348.909088 627.055420,355.980072 
	C631.891602,361.723053 636.503296,368.065399 645.532471,367.061737 
	C648.329590,366.750854 651.183411,366.949463 654.601318,367.638153 
M340.068695,410.025818 
	C340.661835,407.578064 341.254944,405.130310 341.848083,402.682556 
	C338.011627,401.913544 334.175140,401.144531 330.199188,400.347565 
	C329.736267,409.241669 327.878937,410.544159 321.161072,408.123444 
	C320.120972,407.748627 318.831879,408.129791 317.693451,407.943909 
	C316.614868,407.767761 315.521393,407.430267 314.542358,406.945709 
	C311.908813,405.642242 309.332947,404.222260 305.802521,402.356110 
	C302.653534,397.899963 312.830353,392.765686 306.771362,386.586182 
	C310.674438,387.325592 314.034180,388.629242 317.400909,389.914551 
	C318.433044,390.308594 319.463593,390.733978 320.530457,391.005157 
	C325.384674,392.238953 330.252106,393.420593 335.113708,394.625458 
	C339.774719,395.780670 344.434448,396.941345 348.935760,398.060089 
	C351.199554,392.159241 354.571503,387.592316 350.000000,382.731079 
	C349.114594,381.789581 347.697845,381.175934 347.173798,380.096588 
	C345.082153,375.788635 343.246155,371.356476 341.359802,367.070953 
	C342.404449,367.070953 344.290100,366.716370 345.983673,367.136353 
	C351.434570,368.488098 356.758148,370.393188 362.243561,371.551025 
	C365.457092,372.229309 369.626556,372.587189 370.855957,368.512360 
	C372.422363,363.320587 371.835632,358.252472 367.744446,353.816681 
	C364.685974,350.500488 363.492615,345.970062 360.308167,342.358917 
	C355.911011,337.372528 353.484314,330.684021 349.873993,324.937988 
	C349.158386,323.799042 346.751862,322.899109 345.405731,323.189606 
	C343.745605,323.547760 341.520844,324.998993 341.067017,326.454102 
	C340.165070,329.346069 338.971344,333.575073 340.349640,335.397430 
	C342.170776,337.805206 343.638092,340.106018 344.884369,342.868622 
	C346.553497,346.568512 349.039185,349.900055 351.174286,353.389740 
	C350.750061,353.947540 350.325867,354.505341 349.901672,355.063110 
	C346.907257,353.718903 344.014130,352.029419 340.893921,351.113983 
	C336.565552,349.844086 332.061737,348.455719 327.642548,348.486298 
	C325.083618,348.504028 321.186310,350.633301 320.263855,352.815247 
	C318.021362,358.119904 322.579346,362.456177 324.837769,366.663147 
	C326.927673,370.556152 330.590057,373.519867 329.924408,377.934052 
	C321.962921,376.583740 314.323883,374.916504 306.594940,374.106110 
	C301.317657,373.552826 298.335144,378.527222 300.112122,383.584717 
	C300.459381,384.573029 300.427795,386.141388 299.857452,386.918762 
	C298.329132,389.001831 296.413788,390.800995 294.652161,392.712891 
	C294.968201,393.132050 295.284271,393.551178 295.600311,393.970337 
	C293.548004,394.224976 291.127228,395.307190 289.509125,394.586700 
	C283.470398,391.897736 283.100800,397.136200 281.553619,400.105988 
	C280.101898,402.892517 280.621826,405.682861 283.476227,408.000153 
	C284.810486,409.083374 286.099915,411.558838 285.786774,413.066162 
	C285.052277,416.601624 283.339600,419.933868 282.002808,423.400391 
	C281.431915,423.213074 280.263062,422.829529 278.039093,422.099823 
	C279.227600,419.258179 280.117126,416.596405 281.417664,414.153442 
	C283.155151,410.889679 281.905914,408.140961 278.264679,408.003510 
	C275.290619,407.891266 272.308960,407.980682 269.241119,407.980682 
	C269.084259,409.291656 269.338715,410.666809 268.794769,411.158325 
	C264.340912,415.182983 265.647247,420.539429 266.261475,425.138977 
	C266.691711,428.360657 269.074829,432.375885 271.799561,433.998322 
	C276.271240,436.660919 280.372437,438.663116 279.034210,444.610779 
	C285.461700,448.116974 287.149902,448.643005 290.785156,440.810486 
	C295.734711,442.311035 301.354492,442.883209 305.648010,445.572632 
	C312.688171,449.982513 319.778625,446.896332 326.733063,448.069153 
	C326.989563,445.720551 327.430298,443.906952 327.303558,442.133911 
	C327.204163,440.743408 326.769440,438.584656 325.853302,438.174133 
	C320.172241,435.628601 314.393616,433.236542 308.484863,431.285858 
	C304.477936,429.963043 300.205170,429.445557 295.979767,428.552795 
	C296.281097,422.901123 294.347534,417.806549 299.829620,415.273529 
	C307.253326,418.530884 314.289917,422.374176 321.806274,424.590576 
	C325.444916,425.663574 329.702240,426.052155 334.023346,421.743713 
	C337.514252,418.262970 340.613159,416.065948 340.068695,410.025818 
M278.469147,546.024536 
	C282.488708,547.072449 285.644287,545.280579 288.458618,542.777466 
	C290.107971,541.310486 292.476685,539.697144 292.789856,537.855164 
	C293.903778,531.302246 297.253235,525.242676 296.194183,518.136353 
	C295.387726,512.724915 300.032196,508.895111 305.125488,509.261322 
	C306.438965,511.283783 308.418274,513.027039 308.683044,515.000305 
	C309.307953,519.656921 310.758057,525.321960 308.800995,528.896362 
	C306.776581,532.593750 305.882202,535.867920 306.110809,539.654724 
	C306.181244,540.821716 307.641205,542.644592 308.746704,542.888245 
	C315.448547,544.364929 319.849304,540.484436 320.111755,533.672729 
	C320.206909,531.202515 321.375488,528.786987 321.911560,526.315613 
	C322.277832,524.626892 323.234039,522.103271 322.483795,521.299377 
	C318.961426,517.525391 320.334015,513.084534 319.978699,508.859283 
	C319.897003,507.888184 319.488312,506.726501 318.822571,506.058899 
	C315.154114,502.379852 311.359253,498.826813 307.663239,495.283722 
	C312.638000,494.360779 319.429138,486.002441 320.153656,481.067719 
	C320.915375,475.879669 322.771545,471.289856 320.446503,465.567291 
	C319.093231,462.236572 319.059204,458.381134 316.102264,455.553040 
	C311.357513,451.014923 306.601776,446.869019 299.251678,447.924591 
	C293.877594,448.696381 288.916779,448.134399 283.294891,451.330292 
	C277.333618,454.719208 274.277527,460.019257 273.564514,464.339783 
	C272.351776,471.688782 270.363251,480.350128 276.064697,487.235535 
	C278.808594,490.549255 281.390076,494.521484 286.408813,495.030823 
	C290.285553,495.424286 292.673218,500.043488 289.711700,502.099182 
	C283.892059,506.138672 285.932434,512.792725 283.396729,517.901611 
	C281.238861,522.249268 284.274078,528.768860 278.746307,532.748230 
	C277.201721,532.748230 275.244568,532.748230 273.653442,532.748230 
	C272.856049,530.624634 272.196960,528.816345 271.498596,527.023376 
	C270.691986,524.952515 269.030670,522.816711 269.218536,520.850403 
	C269.494476,517.962402 271.381836,515.264771 272.010681,512.362183 
	C272.482422,510.184570 272.758545,507.472076 271.858978,505.606720 
	C270.548309,502.889038 267.522522,500.517181 264.548126,502.213806 
	C262.151123,503.581085 260.071503,506.530396 259.173065,509.219513 
	C258.216736,512.081909 258.096375,515.658142 258.885376,518.578430 
	C260.517456,524.619446 256.684174,530.796814 262.355560,537.301392 
	C266.983795,542.609680 270.276703,546.734741 278.469147,546.024536 
M586.020874,312.879639 
	C585.674316,311.691589 585.327698,310.503540 584.970215,309.278015 
	C591.640320,307.273804 596.633362,302.530640 596.173340,295.948944 
	C595.686890,288.989105 592.404541,283.760712 587.969543,279.022491 
	C585.798584,276.703094 582.856628,273.144684 580.502319,273.321686 
	C573.155884,273.873932 565.973022,271.461243 558.199463,275.478027 
	C550.428101,279.493652 548.386780,286.262634 546.419617,292.428314 
	C544.048706,299.859192 546.606934,307.420105 552.692139,313.779236 
	C558.259705,319.597412 564.983887,321.604767 572.216492,322.921204 
	C575.443359,323.508545 578.506042,321.324219 581.380188,320.611572 
	C586.279419,319.396790 586.137207,317.129425 586.020874,312.879639 
M494.978210,281.809509 
	C495.895447,288.300720 493.672211,294.717468 498.583038,301.290405 
	C504.697510,309.474426 512.169312,312.357056 521.429382,312.963013 
	C522.444397,313.029419 523.793030,312.594299 524.504883,311.898621 
	C527.499146,308.972107 530.140015,309.528259 533.063782,312.054230 
	C535.413452,314.084137 541.650696,313.379333 542.422607,311.077332 
	C543.485657,307.906952 544.626526,304.651794 544.926941,301.359344 
	C545.584595,294.151855 544.851746,286.941071 545.744995,279.626068 
	C546.885559,270.286438 546.139771,260.699188 545.911316,251.225769 
	C545.870789,249.545853 544.781250,247.060043 543.472961,246.446915 
	C541.738037,245.633865 538.437012,245.430756 537.369568,246.509613 
	C535.324585,248.576569 533.696838,251.601624 533.149170,254.468521 
	C532.446289,258.147919 532.978333,262.063293 532.978333,265.200470 
	C529.436401,264.318115 526.651550,262.840851 524.076538,263.144073 
	C518.522461,263.798218 513.071350,261.575775 507.153168,265.457428 
	C503.134949,268.092926 499.514130,269.454254 498.896088,274.595398 
	C498.838043,275.078278 498.125061,275.450562 497.830078,275.942505 
	C496.851562,277.574493 495.925140,279.237671 494.978210,281.809509 
M453.228943,300.012604 
	C455.676941,298.683014 458.113281,296.272278 460.575287,296.245819 
	C465.923798,296.188171 470.854370,295.810028 474.955017,291.992493 
	C475.170624,281.294281 470.143738,273.516510 462.631592,271.972412 
	C461.125977,270.583801 459.185577,268.821899 457.710846,269.150421 
	C452.157379,270.387482 445.059357,265.106750 441.044739,272.897705 
	C437.192993,271.916229 435.284363,274.321045 433.532654,277.126282 
	C430.891083,281.356415 427.604858,284.865173 427.695007,290.763947 
	C427.791107,297.056793 428.364197,303.182373 431.842682,308.047241 
	C434.880798,312.296234 438.413483,317.285614 444.990814,317.035126 
	C445.807983,317.003967 446.847229,316.871338 447.420898,317.286682 
	C453.861206,321.949615 459.438660,316.281555 465.401031,315.668427 
	C467.717102,315.430267 469.801910,313.020874 472.008728,311.626923 
	C476.445862,308.824158 474.759827,304.486694 474.997620,300.444580 
	C473.954468,300.129333 472.662689,300.144440 472.213135,299.536652 
	C469.480499,295.842010 467.335388,297.245972 464.920929,299.926941 
	C463.751160,301.225800 462.015564,302.002533 460.587646,303.083679 
	C455.217194,307.149872 450.665558,307.187408 443.921997,302.242859 
	C447.371857,301.334595 449.869293,300.677094 453.228943,300.012604 
M609.444519,283.973602 
	C606.445862,283.526154 603.447205,283.078735 601.183838,282.740997 
	C599.493896,285.925232 597.279053,288.229889 597.158813,290.639099 
	C596.540710,303.022064 597.871826,315.474396 594.254150,327.733063 
	C593.493774,330.309448 596.237671,333.920013 597.095032,336.299469 
	C607.308167,340.113159 612.341614,331.982178 618.843628,328.145447 
	C626.264343,323.766571 633.119141,318.331726 639.780090,312.823883 
	C641.672546,311.259033 643.248718,307.545624 642.721008,305.360657 
	C642.272705,303.504517 638.447998,301.100739 636.364258,301.317230 
	C633.115540,301.654724 630.121460,304.111877 626.934082,305.470337 
	C624.055359,306.697174 623.343262,310.651550 619.131165,310.591614 
	C616.280273,310.551086 613.398560,312.674408 610.530640,313.829895 
	C611.484680,314.826752 612.438721,315.823578 613.392761,316.820435 
	C611.764160,316.820435 610.135498,316.820435 609.933167,316.820435 
	C609.933167,306.015167 609.933167,295.355774 609.444519,283.973602 
M730.160461,518.974609 
	C725.200439,518.765991 720.431152,517.582153 715.640198,516.613525 
	C707.915894,515.051636 699.296509,513.528320 690.974731,516.772827 
	C690.974731,517.667908 691.174622,518.701660 690.942139,519.626709 
	C689.477478,525.454285 693.687561,527.586304 697.731934,528.684814 
	C701.299805,529.653809 705.322510,529.149658 709.130676,528.983032 
	C714.323547,528.755798 717.883728,532.238831 722.007141,534.366211 
	C726.699585,536.787109 724.390198,541.553772 725.167236,545.521423 
	C726.084839,545.881653 727.466431,545.986633 728.044373,546.722595 
	C731.530029,551.161316 734.797485,548.752625 736.453491,545.657227 
	C737.754822,543.224731 737.802490,539.333923 736.776489,536.734436 
	C736.144043,535.132141 735.831726,534.656250 736.666931,533.096619 
	C740.137146,526.616638 739.241760,519.246887 730.160461,518.974609 
z"/>
<path fill="#F8F8F8" opacity="1.000000" stroke="none" 
	d="
M340.047974,410.463806 
	C340.613159,416.065948 337.514252,418.262970 334.023346,421.743713 
	C329.702240,426.052155 325.444916,425.663574 321.806274,424.590576 
	C314.289917,422.374176 307.253326,418.530884 299.829620,415.273529 
	C294.347534,417.806549 296.281097,422.901123 295.979767,428.552795 
	C300.205170,429.445557 304.477936,429.963043 308.484863,431.285858 
	C314.393616,433.236542 320.172241,435.628601 325.853302,438.174133 
	C326.769440,438.584656 327.204163,440.743408 327.303558,442.133911 
	C327.430298,443.906952 326.989563,445.720551 326.733063,448.069153 
	C319.778625,446.896332 312.688171,449.982513 305.648010,445.572632 
	C301.354492,442.883209 295.734711,442.311035 290.785156,440.810486 
	C287.149902,448.643005 285.461700,448.116974 279.034210,444.610779 
	C280.372437,438.663116 276.271240,436.660919 271.799561,433.998322 
	C269.074829,432.375885 266.691711,428.360657 266.261475,425.138977 
	C265.647247,420.539429 264.340912,415.182983 268.794769,411.158325 
	C269.338715,410.666809 269.084259,409.291656 269.241119,407.980682 
	C272.308960,407.980682 275.290619,407.891266 278.264679,408.003510 
	C281.905914,408.140961 283.155151,410.889679 281.417664,414.153442 
	C280.117126,416.596405 279.227600,419.258179 278.039093,422.099823 
	C280.263062,422.829529 281.431915,423.213074 282.002808,423.400391 
	C283.339600,419.933868 285.052277,416.601624 285.786774,413.066162 
	C286.099915,411.558838 284.810486,409.083374 283.476227,408.000153 
	C280.621826,405.682861 280.101898,402.892517 281.553619,400.105988 
	C283.100800,397.136200 283.470398,391.897736 289.509125,394.586700 
	C291.127228,395.307190 293.548004,394.224976 295.600311,393.970337 
	C295.284271,393.551178 294.968201,393.132050 294.652161,392.712891 
	C296.413788,390.800995 298.329132,389.001831 299.857452,386.918762 
	C300.427795,386.141388 300.459381,384.573029 300.112122,383.584717 
	C298.335144,378.527222 301.317657,373.552826 306.594940,374.106110 
	C314.323883,374.916504 321.962921,376.583740 329.924408,377.934052 
	C330.590057,373.519867 326.927673,370.556152 324.837769,366.663147 
	C322.579346,362.456177 318.021362,358.119904 320.263855,352.815247 
	C321.186310,350.633301 325.083618,348.504028 327.642548,348.486298 
	C332.061737,348.455719 336.565552,349.844086 340.893921,351.113983 
	C344.014130,352.029419 346.907257,353.718903 349.901672,355.063110 
	C350.325867,354.505341 350.750061,353.947540 351.174286,353.389740 
	C349.039185,349.900055 346.553497,346.568512 344.884369,342.868622 
	C343.638092,340.106018 342.170776,337.805206 340.349640,335.397430 
	C338.971344,333.575073 340.165070,329.346069 341.067017,326.454102 
	C341.520844,324.998993 343.745605,323.547760 345.405731,323.189606 
	C346.751862,322.899109 349.158386,323.799042 349.873993,324.937988 
	C353.484314,330.684021 355.911011,337.372528 360.308167,342.358917 
	C363.492615,345.970062 364.685974,350.500488 367.744446,353.816681 
	C371.835632,358.252472 372.422363,363.320587 370.855957,368.512360 
	C369.626556,372.587189 365.457092,372.229309 362.243561,371.551025 
	C356.758148,370.393188 351.434570,368.488098 345.983673,367.136353 
	C344.290100,366.716370 342.404449,367.070953 341.359802,367.070953 
	C343.246155,371.356476 345.082153,375.788635 347.173798,380.096588 
	C347.697845,381.175934 349.114594,381.789581 350.000000,382.731079 
	C354.571503,387.592316 351.199554,392.159241 348.935760,398.060089 
	C344.434448,396.941345 339.774719,395.780670 335.113708,394.625458 
	C330.252106,393.420593 325.384674,392.238953 320.530457,391.005157 
	C319.463593,390.733978 318.433044,390.308594 317.400909,389.914551 
	C314.034180,388.629242 310.674438,387.325592 306.771362,386.586182 
	C312.830353,392.765686 302.653534,397.899963 305.802521,402.356110 
	C309.332947,404.222260 311.908813,405.642242 314.542358,406.945709 
	C315.521393,407.430267 316.614868,407.767761 317.693451,407.943909 
	C318.831879,408.129791 320.120972,407.748627 321.161072,408.123444 
	C327.878937,410.544159 329.736267,409.241669 330.199188,400.347565 
	C334.175140,401.144531 338.011627,401.913544 341.848083,402.682556 
	C341.254944,405.130310 340.661835,407.578064 340.047974,410.463806 
M359.809326,362.324066 
	C349.842865,359.158295 339.903046,355.902954 329.881622,352.921997 
	C328.353027,352.467316 325.795807,352.697479 324.908356,353.684448 
	C324.111938,354.570190 324.405121,357.249115 325.170593,358.595032 
	C330.506592,367.977234 336.090668,377.218353 341.161621,386.861542 
	C341.025818,386.990417 340.890015,387.119263 339.997864,387.185699 
	C330.207581,384.031647 320.346222,381.076874 310.663422,377.621582 
	C306.994843,376.312500 305.002930,376.895874 303.769989,380.782593 
	C316.248932,384.810730 328.678436,388.944916 341.210449,392.740601 
	C343.156403,393.329987 346.073914,393.089844 347.661835,391.977112 
	C350.757202,389.808044 347.714172,387.539825 346.627747,385.636200 
	C341.608795,376.842133 336.397614,368.157806 330.638184,358.387146 
	C341.712555,361.854401 351.573944,364.730560 361.271790,368.080292 
	C365.249695,369.454285 367.530884,368.691132 368.930176,364.727295 
	C361.384430,352.149048 353.839569,339.572266 346.280334,326.971558 
	C343.074585,329.258423 342.962372,331.127777 344.731415,333.974670 
	C350.418091,343.126099 355.746124,352.500366 360.875336,362.130219 
	C360.875336,362.130219 360.548309,362.481476 359.809326,362.324066 
M286.508453,423.937897 
	C285.933533,425.638580 285.358612,427.339233 284.791168,429.017731 
	C273.193298,425.983398 271.607666,422.073700 278.120392,412.548370 
	C277.031525,411.729828 275.933319,410.904236 274.886292,410.117126 
	C265.037415,419.942902 267.937103,428.494995 283.017487,434.839844 
	C282.467316,437.011505 281.908966,439.215515 281.282654,441.687683 
	C282.780457,442.142059 284.140472,442.554626 285.581573,442.991791 
	C286.511841,440.492737 287.351135,438.238098 288.169647,436.039276 
	C300.178955,439.669403 311.730560,443.161194 323.480530,446.712952 
	C324.100464,444.811859 324.603394,443.269562 325.231415,441.343781 
	C313.403778,437.719604 301.736450,434.144562 289.727722,430.464905 
	C290.881653,426.326874 291.970459,422.422333 293.099884,418.372101 
	C291.495148,417.796112 290.305115,417.368958 288.707672,416.795563 
	C288.002869,419.146637 287.396393,421.169678 286.508453,423.937897 
M337.909821,409.187653 
	C337.803284,404.057922 337.803284,404.057922 333.256592,405.178925 
	C332.779388,413.456421 329.199554,417.122131 323.253845,414.707245 
	C315.295898,411.475067 307.609772,407.573517 299.643219,403.883575 
	C301.466461,399.831482 303.092102,396.218567 304.835480,392.344025 
	C303.412292,391.723175 302.116425,391.157867 300.580780,390.487946 
	C298.719757,394.321320 297.006622,397.850037 295.174774,401.623260 
	C292.208527,400.423706 289.532745,399.341644 286.661652,398.180603 
	C285.907227,400.108154 285.327972,401.588104 284.703735,403.182983 
	C287.550690,404.598572 290.035461,405.834106 292.573578,407.096130 
	C291.594818,409.513336 290.759857,411.575348 289.860504,413.796387 
	C291.362915,414.538757 292.487701,415.094574 293.817169,415.751495 
	C295.049042,413.482819 296.143097,411.467957 297.383331,409.183838 
	C304.340851,412.407837 311.219818,415.604675 318.106628,418.784515 
	C328.538239,423.601166 334.137024,421.092407 337.909821,409.187653 
z"/>
<path fill="#F7F7F7" opacity="1.000000" stroke="none" 
	d="
M671.869995,374.117126 
	C673.926880,373.369965 675.949890,372.504486 678.048828,371.904510 
	C680.901978,371.088928 683.968384,370.837433 686.658508,369.681274 
	C689.719421,368.365753 691.990967,368.062469 695.052856,370.200043 
	C697.855835,372.156830 702.073181,372.102631 704.844788,374.084778 
	C707.462830,375.957214 709.029602,379.312836 711.005188,382.054718 
	C711.263611,382.413422 711.031921,383.254578 711.315674,383.446991 
	C718.734802,388.478485 713.573181,395.967529 714.848877,402.184509 
	C714.984497,402.845428 712.882019,403.965607 711.261841,405.346741 
	C713.221375,412.596405 704.918701,413.040619 701.271240,417.269104 
	C707.474060,419.952362 712.336243,416.283142 717.558899,414.830688 
	C719.107788,414.399933 720.726074,414.139648 722.329834,414.000763 
	C726.319519,413.655334 728.344055,414.948456 728.181274,419.568970 
	C728.068115,422.780518 726.477539,426.293671 731.089905,429.267303 
	C733.758423,430.987762 734.571777,436.738800 734.809753,440.759338 
	C735.059998,444.986908 733.994873,449.421021 732.789429,453.556458 
	C732.095825,455.935669 730.088806,457.983185 728.482361,460.030334 
	C726.940491,461.995178 725.152405,463.766876 723.353333,465.755280 
	C724.045227,466.372711 724.818481,467.674255 725.711853,467.762634 
	C732.456299,468.429901 734.776245,473.822418 738.453674,478.312561 
	C742.091797,482.754791 741.916504,487.265717 742.056824,492.169037 
	C742.149658,495.411469 740.897461,497.819611 739.347046,500.686310 
	C737.337158,504.402679 735.282715,507.704102 732.068604,510.364899 
	C731.760864,510.619659 731.839966,511.542847 731.578369,511.621765 
	C727.646790,512.807861 723.739441,514.163818 719.722961,514.955872 
	C714.715271,515.943420 710.883667,514.665833 710.915955,507.983734 
	C708.832886,509.543610 707.347473,511.378235 705.493164,511.898865 
	C701.218628,513.098999 697.385193,511.583282 695.962708,507.292847 
	C694.162109,501.861694 689.518372,497.377167 690.861206,490.804230 
	C691.534485,487.508606 691.501648,484.560425 694.254578,481.684143 
	C696.019897,479.839813 695.034363,475.597290 698.076721,473.499634 
	C700.265869,471.990234 702.251343,470.185242 704.285645,468.545929 
	C692.958557,466.745453 681.929688,451.810211 684.859314,438.040649 
	C679.404602,439.310120 674.125793,440.538696 667.788330,442.013580 
	C667.788330,436.653717 667.788330,432.582001 667.788330,428.135529 
	C674.179138,427.033112 680.213379,426.180603 686.139221,424.846588 
	C687.761230,424.481415 689.058167,422.671967 690.471741,421.551086 
	C682.568665,419.288635 674.288452,417.217621 669.751526,409.985535 
	C665.982544,403.977356 661.687500,397.140625 664.207031,389.597473 
	C665.988098,384.265472 669.720032,379.585083 672.256409,374.342438 
	C671.931763,374.071045 671.869995,374.117157 671.869995,374.117126 
M718.202393,462.951324 
	C732.935547,458.073303 737.958496,435.196045 719.294434,424.392700 
	C721.433899,423.646606 723.501526,422.925537 725.763000,422.136902 
	C725.266602,420.398804 724.873230,419.021423 724.340271,417.155365 
	C705.815308,422.300293 687.525818,427.379822 668.911682,432.549530 
	C669.537903,434.571320 670.047607,436.216766 670.584473,437.950073 
	C674.492126,436.884918 677.991333,435.932465 681.489685,434.977173 
	C684.951660,434.031891 688.412842,433.083771 692.214233,432.043945 
	C687.061707,442.124573 687.548340,450.963287 693.796997,457.915527 
	C700.344788,465.200531 708.466248,466.345703 718.202393,462.951324 
M697.134216,501.066040 
	C698.835571,503.593597 700.536926,506.121124 702.468933,508.991241 
	C704.144043,507.397827 705.148315,506.442535 706.198120,505.443909 
	C700.140808,498.922150 699.011353,491.728149 702.359009,484.010040 
	C704.598389,478.847137 709.356689,476.189514 715.430298,476.608276 
	C715.430298,487.931183 715.430298,499.332581 715.430298,510.707397 
	C729.256653,510.823853 738.110779,502.613678 738.069580,490.638702 
	C738.026794,478.191498 729.124451,469.748077 716.278015,469.970581 
	C700.954712,470.235931 692.007751,484.262146 697.134216,501.066040 
M671.031006,383.741669 
	C670.474060,384.945740 669.778137,386.105957 669.382446,387.360870 
	C666.525940,396.421295 669.049377,404.190643 675.736511,410.491913 
	C682.180054,416.563599 689.836731,417.607056 697.933899,414.075409 
	C706.046936,410.536835 711.025818,404.516113 711.386658,395.394897 
	C711.762634,385.891449 705.498962,376.875092 696.661865,373.838348 
	C687.589172,370.720612 678.019043,374.225311 671.031006,383.741669 
M705.229675,496.652527 
	C706.877563,498.663300 708.525452,500.674103 710.583252,503.184998 
	C710.583252,495.595520 710.583252,488.870972 710.583252,482.146393 
	C710.031494,481.910858 709.479736,481.675323 708.928040,481.439789 
	C707.625977,484.084991 705.981201,486.626495 705.138611,489.410706 
	C704.544800,491.372650 705.040466,493.664337 705.229675,496.652527 
z"/>
<path fill="#F7F7F7" opacity="1.000000" stroke="none" 
	d="
M277.994263,546.024536 
	C270.276703,546.734741 266.983795,542.609680 262.355560,537.301392 
	C256.684174,530.796814 260.517456,524.619446 258.885376,518.578430 
	C258.096375,515.658142 258.216736,512.081909 259.173065,509.219513 
	C260.071503,506.530396 262.151123,503.581085 264.548126,502.213806 
	C267.522522,500.517181 270.548309,502.889038 271.858978,505.606720 
	C272.758545,507.472076 272.482422,510.184570 272.010681,512.362183 
	C271.381836,515.264771 269.494476,517.962402 269.218536,520.850403 
	C269.030670,522.816711 270.691986,524.952515 271.498596,527.023376 
	C272.196960,528.816345 272.856049,530.624634 273.653442,532.748230 
	C275.244568,532.748230 277.201721,532.748230 278.746307,532.748230 
	C284.274078,528.768860 281.238861,522.249268 283.396729,517.901611 
	C285.932434,512.792725 283.892059,506.138672 289.711700,502.099182 
	C292.673218,500.043488 290.285553,495.424286 286.408813,495.030823 
	C281.390076,494.521484 278.808594,490.549255 276.064697,487.235535 
	C270.363251,480.350128 272.351776,471.688782 273.564514,464.339783 
	C274.277527,460.019257 277.333618,454.719208 283.294891,451.330292 
	C288.916779,448.134399 293.877594,448.696381 299.251678,447.924591 
	C306.601776,446.869019 311.357513,451.014923 316.102264,455.553040 
	C319.059204,458.381134 319.093231,462.236572 320.446503,465.567291 
	C322.771545,471.289856 320.915375,475.879669 320.153656,481.067719 
	C319.429138,486.002441 312.638000,494.360779 307.663239,495.283722 
	C311.359253,498.826813 315.154114,502.379852 318.822571,506.058899 
	C319.488312,506.726501 319.897003,507.888184 319.978699,508.859283 
	C320.334015,513.084534 318.961426,517.525391 322.483795,521.299377 
	C323.234039,522.103271 322.277832,524.626892 321.911560,526.315613 
	C321.375488,528.786987 320.206909,531.202515 320.111755,533.672729 
	C319.849304,540.484436 315.448547,544.364929 308.746704,542.888245 
	C307.641205,542.644592 306.181244,540.821716 306.110809,539.654724 
	C305.882202,535.867920 306.776581,532.593750 308.800995,528.896362 
	C310.758057,525.321960 309.307953,519.656921 308.683044,515.000305 
	C308.418274,513.027039 306.438965,511.283783 305.125488,509.261322 
	C300.032196,508.895111 295.387726,512.724915 296.194183,518.136353 
	C297.253235,525.242676 293.903778,531.302246 292.789856,537.855164 
	C292.476685,539.697144 290.107971,541.310486 288.458618,542.777466 
	C285.644287,545.280579 282.488708,547.072449 277.994263,546.024536 
M274.349579,536.512329 
	C272.095947,533.807617 269.030945,531.434937 267.759613,528.328247 
	C265.210052,522.097961 266.057953,515.606750 268.629669,509.382294 
	C268.854767,508.837524 268.747925,508.155609 268.808807,507.359741 
	C267.213837,506.979279 265.845734,506.652924 264.345398,506.295013 
	C260.276459,515.455017 260.214600,524.373657 263.906494,533.220947 
	C266.686920,539.883972 272.608032,543.486572 278.766296,542.823547 
	C285.293518,542.120789 289.343475,538.354187 290.987732,530.890808 
	C292.202545,525.376526 292.845825,519.737915 294.006500,514.209839 
	C294.936401,509.781158 296.746674,505.883301 302.166229,505.580475 
	C306.638336,505.330658 310.251434,508.048157 311.888824,513.338013 
	C314.579712,522.031555 313.608734,530.404541 308.778992,538.543884 
	C310.472656,539.118042 311.943909,539.616882 313.724396,540.220520 
	C319.770874,529.199341 320.138550,518.325195 314.794373,507.479370 
	C311.754181,501.309326 306.464813,499.005432 299.895477,499.890625 
	C294.270142,500.648590 290.461609,504.449585 289.005524,511.318420 
	C287.799988,517.005554 287.129425,522.805481 285.944855,528.497803 
	C284.601349,534.953979 281.594452,537.106934 274.349579,536.512329 
M282.051849,488.473358 
	C283.250214,489.360718 284.382690,490.358734 285.657349,491.118011 
	C296.104187,497.340973 309.369720,494.248993 315.384338,484.230225 
	C321.568146,473.929626 318.401306,460.527252 308.370087,454.544952 
	C299.364624,449.174438 287.157318,451.026031 280.667053,458.747009 
	C273.773529,466.947754 274.133698,479.036896 282.051849,488.473358 
z"/>
<path fill="#F8F8F8" opacity="1.000000" stroke="none" 
	d="
M654.011230,366.914795 
	C651.183411,366.949463 648.329590,366.750854 645.532471,367.061737 
	C636.503296,368.065399 631.891602,361.723053 627.055420,355.980072 
	C621.101013,348.909088 623.479187,340.102081 624.607910,332.618408 
	C625.284546,328.132446 629.061462,322.742157 635.034241,319.542542 
	C640.860474,316.421387 646.219177,317.235870 651.799622,317.075012 
	C662.822571,316.757233 671.173340,325.201904 670.957520,336.268219 
	C670.838501,342.373840 672.781494,348.980103 667.937195,354.250305 
	C666.050659,356.302734 663.747070,359.438019 661.585754,359.477631 
	C656.517395,359.570496 655.862610,363.291504 654.004395,366.607574 
	C653.988037,366.969696 654.011230,366.914764 654.011230,366.914795 
M648.759827,344.735504 
	C652.932678,348.458130 657.105530,352.180756 661.268433,355.894531 
	C670.597229,345.697144 670.707336,333.554443 661.870789,325.447174 
	C653.134277,317.431702 640.834229,318.042725 632.472412,326.907562 
	C623.807068,336.094208 624.274292,348.550720 633.620728,357.523956 
	C638.695435,362.396027 648.275330,365.664062 650.628784,363.276581 
	C650.628784,361.906342 650.628784,360.516907 650.628784,359.147095 
	C641.796631,358.901825 635.675537,354.901428 632.669067,346.970001 
	C630.786438,342.003448 631.326721,337.036469 635.320801,332.661560 
	C639.837097,336.714294 644.039001,340.484955 648.759827,344.735504 
M644.299438,353.743134 
	C646.289551,353.743134 648.279602,353.743134 649.807983,353.743134 
	C645.705383,349.423615 641.517090,345.013855 636.777649,340.023804 
	C636.777649,341.769653 636.873779,343.088867 636.760803,344.389893 
	C636.311523,349.562805 641.612183,350.106445 644.299438,353.743134 
z"/>
<path fill="#F8F8F8" opacity="1.000000" stroke="none" 
	d="
M367.045227,330.053711 
	C364.885468,330.042847 362.725189,330.056824 360.566010,330.015564 
	C356.898590,329.945435 353.756439,326.507843 355.111481,323.320770 
	C358.189362,316.081635 361.422546,309.629608 369.541351,305.367645 
	C375.121582,302.438385 380.082153,302.808228 384.815155,303.379852 
	C389.700409,303.969910 394.069275,307.728790 397.213409,312.334503 
	C401.307404,318.331696 405.938599,323.962189 410.650940,329.849976 
	C410.963257,329.949493 410.922577,329.897400 410.922577,329.897400 
	C411.139923,337.085266 410.398254,338.061218 403.245972,340.065399 
	C402.786469,340.194153 402.263367,340.347961 401.937500,340.663361 
	C398.243927,344.237885 394.569153,347.832153 390.917389,351.449432 
	C387.199158,355.132538 375.128448,354.889282 371.121429,351.654083 
	C367.443604,348.684631 366.703339,345.157410 366.941559,340.879456 
	C367.126282,337.561371 366.975708,334.224640 367.376129,330.435486 
	C368.604431,329.940735 369.788544,330.247803 370.199097,329.817261 
	C372.903992,326.980835 375.407593,323.953796 378.053223,321.058746 
	C379.029053,319.990875 380.211792,319.112061 381.467102,317.999023 
	C373.690826,313.853912 372.321075,322.844666 367.045227,323.595276 
	C367.045227,325.772278 367.045227,327.912994 367.045227,330.053711 
M398.444916,322.049286 
	C395.746002,318.463013 393.234161,314.714905 390.304596,311.328156 
	C385.848419,306.176575 380.536560,304.749512 374.609680,307.227417 
	C367.085663,310.373016 361.578186,315.677704 358.883270,323.567352 
	C358.740356,323.985748 358.864807,324.495514 358.864807,325.316101 
	C360.162048,325.701935 361.461365,326.088348 362.733978,326.466827 
	C366.049774,318.969788 370.239746,312.865570 378.759430,311.964661 
	C383.723206,311.439819 386.312256,314.985321 388.705627,318.572021 
	C383.410461,322.847748 378.103271,326.615692 373.433228,331.054077 
	C369.032043,335.236938 368.717041,340.549194 371.625763,345.121460 
	C374.674316,349.913544 379.801758,351.871918 385.536438,349.852478 
	C393.080841,347.195831 398.385193,342.242126 399.652679,333.368134 
	C401.128265,335.120422 402.165955,336.352692 403.345612,337.753540 
	C404.760590,336.631989 406.001068,335.648743 407.422058,334.522461 
	C404.487122,330.424347 401.689453,326.517944 398.444916,322.049286 
z"/>
<path fill="#F8F8F8" opacity="1.000000" stroke="none" 
	d="
M586.021057,313.304688 
	C586.137207,317.129425 586.279419,319.396790 581.380188,320.611572 
	C578.506042,321.324219 575.443359,323.508545 572.216492,322.921204 
	C564.983887,321.604767 558.259705,319.597412 552.692139,313.779236 
	C546.606934,307.420105 544.048706,299.859192 546.419617,292.428314 
	C548.386780,286.262634 550.428101,279.493652 558.199463,275.478027 
	C565.973022,271.461243 573.155884,273.873932 580.502319,273.321686 
	C582.856628,273.144684 585.798584,276.703094 587.969543,279.022491 
	C592.404541,283.760712 595.686890,288.989105 596.173340,295.948944 
	C596.633362,302.530640 591.640320,307.273804 584.970215,309.278015 
	C585.327698,310.503540 585.674316,311.691589 586.021057,313.304688 
M589.334900,304.100281 
	C593.236084,292.961761 589.810852,282.803131 580.537292,278.008301 
	C571.122131,273.140289 560.232605,275.551697 554.248535,283.829865 
	C547.640808,292.970703 548.492981,305.198242 556.244629,312.471191 
	C563.885376,319.640076 575.774109,321.080322 582.754761,315.504852 
	C582.112427,314.316559 581.450195,313.091431 580.798889,311.886475 
	C572.930054,315.517120 566.073853,314.149750 560.125427,308.795837 
	C555.926453,305.016449 554.146729,300.207397 556.040222,294.195312 
	C567.069092,297.650208 577.789429,301.008423 589.334900,304.100281 
M575.203369,304.062897 
	C570.231079,302.700195 565.258789,301.337524 560.286499,299.974823 
	C562.447937,304.841858 565.093384,309.004700 570.135315,309.878937 
	C577.105530,311.087524 578.801697,310.245239 581.070801,306.593201 
	C579.388184,305.897217 577.647888,305.177338 575.203369,304.062897 
z"/>
<path fill="#F7F7F7" opacity="1.000000" stroke="none" 
	d="
M494.978455,281.349182 
	C495.925140,279.237671 496.851562,277.574493 497.830078,275.942505 
	C498.125061,275.450562 498.838043,275.078278 498.896088,274.595398 
	C499.514130,269.454254 503.134949,268.092926 507.153168,265.457428 
	C513.071350,261.575775 518.522461,263.798218 524.076538,263.144073 
	C526.651550,262.840851 529.436401,264.318115 532.978333,265.200470 
	C532.978333,262.063293 532.446289,258.147919 533.149170,254.468521 
	C533.696838,251.601624 535.324585,248.576569 537.369568,246.509613 
	C538.437012,245.430756 541.738037,245.633865 543.472961,246.446915 
	C544.781250,247.060043 545.870789,249.545853 545.911316,251.225769 
	C546.139771,260.699188 546.885559,270.286438 545.744995,279.626068 
	C544.851746,286.941071 545.584595,294.151855 544.926941,301.359344 
	C544.626526,304.651794 543.485657,307.906952 542.422607,311.077332 
	C541.650696,313.379333 535.413452,314.084137 533.063782,312.054230 
	C530.140015,309.528259 527.499146,308.972107 524.504883,311.898621 
	C523.793030,312.594299 522.444397,313.029419 521.429382,312.963013 
	C512.169312,312.357056 504.697510,309.474426 498.583038,301.290405 
	C493.672211,294.717468 495.895447,288.300720 494.978455,281.349182 
M501.177124,299.134552 
	C504.865509,304.819855 510.200073,307.835724 516.827637,308.646942 
	C523.447693,309.457245 529.003540,307.014374 534.191528,301.992004 
	C534.191528,304.922119 534.191528,307.027985 534.191528,309.451691 
	C535.819763,309.558258 537.215027,309.649567 539.174500,309.777802 
	C540.607605,289.918793 542.012207,270.454590 543.441406,250.650024 
	C541.154419,250.650024 539.611389,250.650024 537.830566,250.650024 
	C537.203979,258.647186 536.599854,266.356964 536.032104,273.602783 
	C532.504150,271.342712 529.340698,268.544708 525.647583,267.110107 
	C517.838745,264.076691 508.290161,266.574982 503.371399,272.785187 
	C497.117004,280.681763 496.273438,289.362793 501.177124,299.134552 
z"/>
<path fill="#F8F8F8" opacity="1.000000" stroke="none" 
	d="
M452.797852,300.016083 
	C449.869293,300.677094 447.371857,301.334595 443.921997,302.242859 
	C450.665558,307.187408 455.217194,307.149872 460.587646,303.083679 
	C462.015564,302.002533 463.751160,301.225800 464.920929,299.926941 
	C467.335388,297.245972 469.480499,295.842010 472.213135,299.536652 
	C472.662689,300.144440 473.954468,300.129333 474.997620,300.444580 
	C474.759827,304.486694 476.445862,308.824158 472.008728,311.626923 
	C469.801910,313.020874 467.717102,315.430267 465.401031,315.668427 
	C459.438660,316.281555 453.861206,321.949615 447.420898,317.286682 
	C446.847229,316.871338 445.807983,317.003967 444.990814,317.035126 
	C438.413483,317.285614 434.880798,312.296234 431.842682,308.047241 
	C428.364197,303.182373 427.791107,297.056793 427.695007,290.763947 
	C427.604858,284.865173 430.891083,281.356415 433.532654,277.126282 
	C435.284363,274.321045 437.192993,271.916229 441.044739,272.897705 
	C445.059357,265.106750 452.157379,270.387482 457.710846,269.150421 
	C459.185577,268.821899 461.125977,270.583801 462.631592,271.972412 
	C470.143738,273.516510 475.170624,281.294281 474.954346,291.990112 
	C470.854370,295.810028 465.923798,296.188171 460.575287,296.245819 
	C458.113281,296.272278 455.676941,298.683014 452.797852,300.016083 
M434.424225,304.901245 
	C444.026093,319.139282 464.848297,318.396118 472.744843,303.375580 
	C471.567230,302.570831 470.372864,301.754639 469.048920,300.849884 
	C464.083008,308.049805 457.468506,311.269287 449.150696,309.565552 
	C443.846832,308.479126 440.028748,305.146118 438.396271,299.437775 
	C449.727142,296.399963 460.743774,293.446350 471.737549,290.498901 
	C470.262146,280.919159 463.814667,274.037689 455.194611,272.899292 
	C447.179626,271.840851 440.238342,274.147675 435.332825,280.691650 
	C429.766541,288.117096 430.229126,296.157684 434.424225,304.901245 
z"/>
<path fill="#F8F8F8" opacity="1.000000" stroke="none" 
	d="
M609.688843,284.334961 
	C609.933167,295.355774 609.933167,306.015167 609.933167,316.820435 
	C610.135498,316.820435 611.764160,316.820435 613.392761,316.820435 
	C612.438721,315.823578 611.484680,314.826752 610.530640,313.829895 
	C613.398560,312.674408 616.280273,310.551086 619.131165,310.591614 
	C623.343262,310.651550 624.055359,306.697174 626.934082,305.470337 
	C630.121460,304.111877 633.115540,301.654724 636.364258,301.317230 
	C638.447998,301.100739 642.272705,303.504517 642.721008,305.360657 
	C643.248718,307.545624 641.672546,311.259033 639.780090,312.823883 
	C633.119141,318.331726 626.264343,323.766571 618.843628,328.145447 
	C612.341614,331.982178 607.308167,340.113159 597.095032,336.299469 
	C596.237671,333.920013 593.493774,330.309448 594.254150,327.733063 
	C597.871826,315.474396 596.540710,303.022064 597.158813,290.639099 
	C597.279053,288.229889 599.493896,285.925232 601.183838,282.740997 
	C603.447205,283.078735 606.445862,283.526154 609.688843,284.334961 
M598.200439,328.438629 
	C598.378845,332.995728 601.716492,335.365112 604.976013,333.023804 
	C616.664551,324.627930 628.247742,316.085632 639.879395,307.592377 
	C637.013367,304.322723 634.641479,304.829285 631.615112,307.146667 
	C622.711182,313.964813 613.557434,320.456665 603.806213,327.584473 
	C605.064026,315.540955 605.987244,304.464874 607.491028,293.468201 
	C608.046448,289.406860 607.215576,287.234131 602.740784,286.437836 
	C601.251465,300.230774 599.774536,313.909821 598.200439,328.438629 
z"/>
<path fill="#F8F8F8" opacity="1.000000" stroke="none" 
	d="
M653.960693,366.981628 
	C655.103455,366.915924 656.581116,367.268768 657.392517,366.689087 
	C661.850342,363.504059 666.251465,360.218567 670.461365,356.714508 
	C673.687439,354.029297 676.434326,350.762085 679.697693,348.129730 
	C683.551697,345.020966 688.151123,342.744781 691.652771,339.316467 
	C695.145508,335.896942 699.319275,336.232300 702.433777,337.620880 
	C704.414856,338.504120 704.757080,343.063293 705.534241,345.163422 
	C693.758057,355.135681 682.971619,364.269897 672.027588,373.760620 
	C671.869995,374.117157 671.931763,374.071045 671.956604,374.043701 
	C668.291809,377.047791 664.849670,380.486420 660.809570,382.940918 
	C658.751465,384.191284 655.590149,383.992645 652.989502,383.759003 
	C652.212402,383.689178 651.385437,381.350769 651.028931,379.938690 
	C649.831238,375.195801 651.807678,371.275757 654.306274,367.276459 
	C654.011230,366.914764 653.988037,366.969696 653.960693,366.981628 
M670.329346,361.841705 
	C664.382141,366.630920 658.434937,371.420105 652.219116,376.425659 
	C653.559998,377.981689 654.675659,379.276367 655.935608,380.738495 
	C671.517456,368.186432 686.731079,355.931030 702.067078,343.577026 
	C700.625244,341.940765 699.571960,340.745392 698.345825,339.353912 
	C689.010559,346.828613 679.934570,354.095673 670.329346,361.841705 
z"/>
<path fill="#F8F8F8" opacity="1.000000" stroke="none" 
	d="
M410.986572,329.972900 
	C409.610962,326.444702 408.222443,322.888916 406.810486,319.342468 
	C404.872314,314.474274 403.028870,309.563995 400.932922,304.764313 
	C399.213531,300.826996 397.184631,297.024811 395.321838,293.221710 
	C396.198151,291.474487 397.105164,289.586304 398.094177,287.742096 
	C398.394012,287.182983 399.038910,286.254700 399.325897,286.323944 
	C406.533966,288.062958 410.321625,280.872620 416.410583,279.879089 
	C417.782928,279.655182 420.165497,279.773529 420.561981,280.530731 
	C421.684387,282.674530 423.206818,285.812531 422.386261,287.489777 
	C421.134064,290.049408 420.633942,293.355743 417.124115,294.934052 
	C412.676331,296.934265 414.009735,301.453644 415.264893,304.849854 
	C416.184265,306.696350 416.740540,308.888214 418.099335,310.316681 
	C420.836365,313.193878 419.729126,317.843475 423.397064,320.340942 
	C425.900757,322.045715 425.551788,328.943939 423.348633,331.195068 
	C420.365417,334.243225 415.463165,333.817047 411.276978,330.036896 
	C410.922577,329.897400 410.963257,329.949493 410.986572,329.972900 
M418.200562,283.426941 
	C411.640381,284.590118 409.153320,289.607574 407.019958,295.656036 
	C405.765778,293.550293 404.715729,291.787231 403.552429,289.834045 
	C401.961914,290.701263 400.541199,291.475922 399.024841,292.302704 
	C405.156189,305.063629 411.158417,317.555847 417.187500,330.103912 
	C419.122131,329.106567 420.571228,328.359497 422.238922,327.499756 
	C419.486237,321.781799 416.797302,316.286957 414.186859,310.755035 
	C408.634735,298.989441 409.611206,295.056854 420.021667,287.141388 
	C419.575409,286.107086 419.118500,285.048065 418.200562,283.426941 
z"/>
<path fill="#F6F6F6" opacity="1.000000" stroke="none" 
	d="
M730.606689,518.974792 
	C739.241760,519.246887 740.137146,526.616638 736.666931,533.096619 
	C735.831726,534.656250 736.144043,535.132141 736.776489,536.734436 
	C737.802490,539.333923 737.754822,543.224731 736.453491,545.657227 
	C734.797485,548.752625 731.530029,551.161316 728.044373,546.722595 
	C727.466431,545.986633 726.084839,545.881653 725.167236,545.521423 
	C724.390198,541.553772 726.699585,536.787109 722.007141,534.366211 
	C717.883728,532.238831 714.323547,528.755798 709.130676,528.983032 
	C705.322510,529.149658 701.299805,529.653809 697.731934,528.684814 
	C693.687561,527.586304 689.477478,525.454285 690.942139,519.626709 
	C691.174622,518.701660 690.974731,517.667908 690.974731,516.772827 
	C699.296509,513.528320 707.915894,515.051636 715.640198,516.613525 
	C720.431152,517.582153 725.200439,518.765991 730.606689,518.974792 
M714.487488,526.907959 
	C725.468201,528.803040 728.298218,532.215881 729.069336,544.802185 
	C730.561707,544.903076 732.094604,545.006714 735.246826,545.219849 
	C733.390747,539.134521 731.829956,534.017212 730.308838,529.029968 
	C731.510437,529.185608 733.466614,529.438965 735.822205,529.744019 
	C736.035400,527.956543 736.235779,526.276550 736.449097,524.487915 
	C729.132141,523.312012 722.420227,522.194763 715.695129,521.163330 
	C708.983093,520.133850 702.257874,519.190308 695.209473,518.161072 
	C694.859436,519.956970 694.525696,521.669128 694.146545,523.614380 
	C700.882568,524.702759 707.266296,525.734192 714.487488,526.907959 
z"/>
<path fill="#0D0D0D" opacity="1.000000" stroke="none" 
	d="
M341.595245,386.504700 
	C336.090668,377.218353 330.506592,367.977234 325.170593,358.595032 
	C324.405121,357.249115 324.111938,354.570190 324.908356,353.684448 
	C325.795807,352.697479 328.353027,352.467316 329.881622,352.921997 
	C339.903046,355.902954 349.842865,359.158295 360.393738,362.554871 
	C361.230316,362.736877 361.482513,362.688110 361.734711,362.639343 
	C361.560638,362.355804 361.386566,362.072266 361.212494,361.788696 
	C355.746124,352.500366 350.418091,343.126099 344.731415,333.974670 
	C342.962372,331.127777 343.074585,329.258423 346.280334,326.971558 
	C353.839569,339.572266 361.384430,352.149048 368.930176,364.727295 
	C367.530884,368.691132 365.249695,369.454285 361.271790,368.080292 
	C351.573944,364.730560 341.712555,361.854401 330.638184,358.387146 
	C336.397614,368.157806 341.608795,376.842133 346.627747,385.636200 
	C347.714172,387.539825 350.757202,389.808044 347.661835,391.977112 
	C346.073914,393.089844 343.156403,393.329987 341.210449,392.740601 
	C328.678436,388.944916 316.248932,384.810730 303.769989,380.782593 
	C305.002930,376.895874 306.994843,376.312500 310.663422,377.621582 
	C320.346222,381.076874 330.207581,384.031647 340.521790,387.443359 
	C341.228912,387.302277 341.412079,386.903473 341.595245,386.504700 
z"/>
<path fill="#0D0D0D" opacity="1.000000" stroke="none" 
	d="
M286.649200,423.565308 
	C287.396393,421.169678 288.002869,419.146637 288.707672,416.795563 
	C290.305115,417.368958 291.495148,417.796112 293.099884,418.372101 
	C291.970459,422.422333 290.881653,426.326874 289.727722,430.464905 
	C301.736450,434.144562 313.403778,437.719604 325.231415,441.343781 
	C324.603394,443.269562 324.100464,444.811859 323.480530,446.712952 
	C311.730560,443.161194 300.178955,439.669403 288.169647,436.039276 
	C287.351135,438.238098 286.511841,440.492737 285.581573,442.991791 
	C284.140472,442.554626 282.780457,442.142059 281.282654,441.687683 
	C281.908966,439.215515 282.467316,437.011505 283.017487,434.839844 
	C267.937103,428.494995 265.037415,419.942902 274.886292,410.117126 
	C275.933319,410.904236 277.031525,411.729828 278.120392,412.548370 
	C271.607666,422.073700 273.193298,425.983398 284.791168,429.017731 
	C285.358612,427.339233 285.933533,425.638580 286.649200,423.565308 
z"/>
<path fill="#0D0D0D" opacity="1.000000" stroke="none" 
	d="
M337.841888,409.587402 
	C334.137024,421.092407 328.538239,423.601166 318.106628,418.784515 
	C311.219818,415.604675 304.340851,412.407837 297.383331,409.183838 
	C296.143097,411.467957 295.049042,413.482819 293.817169,415.751495 
	C292.487701,415.094574 291.362915,414.538757 289.860504,413.796387 
	C290.759857,411.575348 291.594818,409.513336 292.573578,407.096130 
	C290.035461,405.834106 287.550690,404.598572 284.703735,403.182983 
	C285.327972,401.588104 285.907227,400.108154 286.661652,398.180603 
	C289.532745,399.341644 292.208527,400.423706 295.174774,401.623260 
	C297.006622,397.850037 298.719757,394.321320 300.580780,390.487946 
	C302.116425,391.157867 303.412292,391.723175 304.835480,392.344025 
	C303.092102,396.218567 301.466461,399.831482 299.643219,403.883575 
	C307.609772,407.573517 315.295898,411.475067 323.253845,414.707245 
	C329.199554,417.122131 332.779388,413.456421 333.256592,405.178925 
	C337.803284,404.057922 337.803284,404.057922 337.841888,409.587402 
z"/>
<path fill="#0C0C0C" opacity="1.000000" stroke="none" 
	d="
M717.822754,463.050629 
	C708.466248,466.345703 700.344788,465.200531 693.796997,457.915527 
	C687.548340,450.963287 687.061707,442.124573 692.214233,432.043945 
	C688.412842,433.083771 684.951660,434.031891 681.489685,434.977173 
	C677.991333,435.932465 674.492126,436.884918 670.584473,437.950073 
	C670.047607,436.216766 669.537903,434.571320 668.911682,432.549530 
	C687.525818,427.379822 705.815308,422.300293 724.340271,417.155365 
	C724.873230,419.021423 725.266602,420.398804 725.763000,422.136902 
	C723.501526,422.925537 721.433899,423.646606 719.294434,424.392700 
	C737.958496,435.196045 732.935547,458.073303 717.822754,463.050629 
M708.973816,427.587250 
	C707.207947,428.025391 705.374329,428.286499 703.687683,428.931763 
	C695.576660,432.034851 691.829285,439.485229 694.092957,447.789246 
	C696.209106,455.552460 703.579834,460.181122 711.771301,458.891022 
	C720.649780,457.492737 726.396790,450.953186 726.115601,442.568359 
	C725.816040,433.633972 719.938538,428.201874 708.973816,427.587250 
z"/>
<path fill="#0D0D0D" opacity="1.000000" stroke="none" 
	d="
M697.031250,500.685760 
	C692.007751,484.262146 700.954712,470.235931 716.278015,469.970581 
	C729.124451,469.748077 738.026794,478.191498 738.069580,490.638702 
	C738.110779,502.613678 729.256653,510.823853 715.430298,510.707397 
	C715.430298,499.332581 715.430298,487.931183 715.430298,476.608276 
	C709.356689,476.189514 704.598389,478.847137 702.359009,484.010040 
	C699.011353,491.728149 700.140808,498.922150 706.198120,505.443909 
	C705.148315,506.442535 704.144043,507.397827 702.468933,508.991241 
	C700.536926,506.121124 698.835571,503.593597 697.031250,500.685760 
M724.210938,476.844208 
	C722.559326,476.490387 720.907715,476.136566 719.782715,475.895569 
	C719.782715,485.918793 719.782715,495.431396 719.782715,505.067322 
	C727.441223,503.710358 731.857422,499.714722 732.947815,493.762543 
	C734.274902,486.517883 731.749207,481.241455 724.210938,476.844208 
z"/>
<path fill="#0B0B0B" opacity="1.000000" stroke="none" 
	d="
M671.216187,383.415375 
	C678.019043,374.225311 687.589172,370.720612 696.661865,373.838348 
	C705.498962,376.875092 711.762634,385.891449 711.386658,395.394897 
	C711.025818,404.516113 706.046936,410.536835 697.933899,414.075409 
	C689.836731,417.607056 682.180054,416.563599 675.736511,410.491913 
	C669.049377,404.190643 666.525940,396.421295 669.382446,387.360870 
	C669.778137,386.105957 670.474060,384.945740 671.216187,383.415375 
M678.724243,383.188202 
	C672.638245,389.926605 671.823181,396.791534 676.311646,403.509064 
	C680.366638,409.577820 687.279541,411.833191 694.255005,409.363068 
	C702.381897,406.485168 706.921631,400.138947 706.103210,392.449890 
	C704.927002,381.398621 692.239319,372.659302 678.724243,383.188202 
z"/>
<path fill="#47704C" opacity="1.000000" stroke="none" 
	d="
M705.139709,496.230652 
	C705.040466,493.664337 704.544800,491.372650 705.138611,489.410706 
	C705.981201,486.626495 707.625977,484.084991 708.928040,481.439789 
	C709.479736,481.675323 710.031494,481.910858 710.583252,482.146393 
	C710.583252,488.870972 710.583252,495.595520 710.583252,503.184998 
	C708.525452,500.674103 706.877563,498.663300 705.139709,496.230652 
z"/>
<path fill="#0D0D0D" opacity="1.000000" stroke="none" 
	d="
M274.722595,536.642517 
	C281.594452,537.106934 284.601349,534.953979 285.944855,528.497803 
	C287.129425,522.805481 287.799988,517.005554 289.005524,511.318420 
	C290.461609,504.449585 294.270142,500.648590 299.895477,499.890625 
	C306.464813,499.005432 311.754181,501.309326 314.794373,507.479370 
	C320.138550,518.325195 319.770874,529.199341 313.724396,540.220520 
	C311.943909,539.616882 310.472656,539.118042 308.778992,538.543884 
	C313.608734,530.404541 314.579712,522.031555 311.888824,513.338013 
	C310.251434,508.048157 306.638336,505.330658 302.166229,505.580475 
	C296.746674,505.883301 294.936401,509.781158 294.006500,514.209839 
	C292.845825,519.737915 292.202545,525.376526 290.987732,530.890808 
	C289.343475,538.354187 285.293518,542.120789 278.766296,542.823547 
	C272.608032,543.486572 266.686920,539.883972 263.906494,533.220947 
	C260.214600,524.373657 260.276459,515.455017 264.345398,506.295013 
	C265.845734,506.652924 267.213837,506.979279 268.808807,507.359741 
	C268.747925,508.155609 268.854767,508.837524 268.629669,509.382294 
	C266.057953,515.606750 265.210052,522.097961 267.759613,528.328247 
	C269.030945,531.434937 272.095947,533.807617 274.722595,536.642517 
z"/>
<path fill="#0B0B0B" opacity="1.000000" stroke="none" 
	d="
M281.794556,488.215210 
	C274.133698,479.036896 273.773529,466.947754 280.667053,458.747009 
	C287.157318,451.026031 299.364624,449.174438 308.370087,454.544952 
	C318.401306,460.527252 321.568146,473.929626 315.384338,484.230225 
	C309.369720,494.248993 296.104187,497.340973 285.657349,491.118011 
	C284.382690,490.358734 283.250214,489.360718 281.794556,488.215210 
M305.746124,459.549072 
	C296.364258,455.348053 287.522614,457.151917 283.124237,464.164368 
	C278.654785,471.290131 280.472290,480.933807 287.145447,485.500641 
	C294.592529,490.597107 305.582245,489.035980 310.492401,482.280975 
	C314.677399,476.523590 315.004395,464.769562 305.746124,459.549072 
z"/>
<path fill="#0C0C0C" opacity="1.000000" stroke="none" 
	d="
M648.500366,344.495544 
	C644.039001,340.484955 639.837097,336.714294 635.320801,332.661560 
	C631.326721,337.036469 630.786438,342.003448 632.669067,346.970001 
	C635.675537,354.901428 641.796631,358.901825 650.628784,359.147095 
	C650.628784,360.516907 650.628784,361.906342 650.628784,363.276581 
	C648.275330,365.664062 638.695435,362.396027 633.620728,357.523956 
	C624.274292,348.550720 623.807068,336.094208 632.472412,326.907562 
	C640.834229,318.042725 653.134277,317.431702 661.870789,325.447174 
	C670.707336,333.554443 670.597229,345.697144 661.268433,355.894531 
	C657.105530,352.180756 652.932678,348.458130 648.500366,344.495544 
M656.736572,327.552917 
	C649.365601,323.496185 643.786072,324.073639 638.302856,329.570984 
	C641.870361,332.790314 645.425781,336.011780 648.995911,339.216705 
	C652.644531,342.492126 656.307739,345.751343 660.015076,349.062744 
	C665.265564,340.875305 664.385742,334.720825 656.736572,327.552917 
z"/>
<path fill="#47704C" opacity="1.000000" stroke="none" 
	d="
M644.030884,353.459778 
	C641.612183,350.106445 636.311523,349.562805 636.760803,344.389893 
	C636.873779,343.088867 636.777649,341.769653 636.777649,340.023804 
	C641.517090,345.013855 645.705383,349.423615 649.807983,353.743134 
	C648.279602,353.743134 646.289551,353.743134 644.030884,353.459778 
z"/>
<path fill="#0C0C0C" opacity="1.000000" stroke="none" 
	d="
M398.668365,322.330444 
	C401.689453,326.517944 404.487122,330.424347 407.422058,334.522461 
	C406.001068,335.648743 404.760590,336.631989 403.345612,337.753540 
	C402.165955,336.352692 401.128265,335.120422 399.652679,333.368134 
	C398.385193,342.242126 393.080841,347.195831 385.536438,349.852478 
	C379.801758,351.871918 374.674316,349.913544 371.625763,345.121460 
	C368.717041,340.549194 369.032043,335.236938 373.433228,331.054077 
	C378.103271,326.615692 383.410461,322.847748 388.705627,318.572021 
	C386.312256,314.985321 383.723206,311.439819 378.759430,311.964661 
	C370.239746,312.865570 366.049774,318.969788 362.733978,326.466827 
	C361.461365,326.088348 360.162048,325.701935 358.864807,325.316101 
	C358.864807,324.495514 358.740356,323.985748 358.883270,323.567352 
	C361.578186,315.677704 367.085663,310.373016 374.609680,307.227417 
	C380.536560,304.749512 385.848419,306.176575 390.304596,311.328156 
	C393.234161,314.714905 395.746002,318.463013 398.668365,322.330444 
M377.392578,333.041534 
	C374.995880,335.836731 373.713257,339.229553 376.521637,341.968231 
	C378.363922,343.764771 381.790955,345.243073 384.209229,344.878815 
	C389.794403,344.037537 393.607147,340.262665 395.443848,334.764160 
	C397.157928,329.632812 394.959778,325.901398 391.045166,322.363586 
	C386.581757,325.822876 382.253754,329.177246 377.392578,333.041534 
z"/>
<path fill="#47704C" opacity="1.000000" stroke="none" 
	d="
M367.021393,330.028320 
	C367.045227,327.912994 367.045227,325.772278 367.045227,323.595276 
	C372.321075,322.844666 373.690826,313.853912 381.467102,317.999023 
	C380.211792,319.112061 379.029053,319.990875 378.053223,321.058746 
	C375.407593,323.953796 372.903992,326.980835 370.199097,329.817261 
	C369.788544,330.247803 368.604431,329.940735 367.362488,329.965027 
	C366.946808,329.955231 366.997559,330.002930 367.021393,330.028320 
z"/>
<path fill="#0C0C0C" opacity="1.000000" stroke="none" 
	d="
M588.922363,304.233459 
	C577.789429,301.008423 567.069092,297.650208 556.040222,294.195312 
	C554.146729,300.207397 555.926453,305.016449 560.125427,308.795837 
	C566.073853,314.149750 572.930054,315.517120 580.798889,311.886475 
	C581.450195,313.091431 582.112427,314.316559 582.754761,315.504852 
	C575.774109,321.080322 563.885376,319.640076 556.244629,312.471191 
	C548.492981,305.198242 547.640808,292.970703 554.248535,283.829865 
	C560.232605,275.551697 571.122131,273.140289 580.537292,278.008301 
	C589.810852,282.803131 593.236084,292.961761 588.922363,304.233459 
M584.674622,298.740662 
	C585.076599,298.132690 585.758850,297.558899 585.837708,296.911560 
	C586.734680,289.553223 582.041565,282.938812 574.624268,280.975708 
	C567.170044,279.002838 560.642517,282.380585 557.524841,290.079285 
	C566.335510,292.899780 575.124268,295.713226 584.674622,298.740662 
z"/>
<path fill="#47704C" opacity="1.000000" stroke="none" 
	d="
M575.555420,304.260193 
	C577.647888,305.177338 579.388184,305.897217 581.070801,306.593201 
	C578.801697,310.245239 577.105530,311.087524 570.135315,309.878937 
	C565.093384,309.004700 562.447937,304.841858 560.286499,299.974823 
	C565.258789,301.337524 570.231079,302.700195 575.555420,304.260193 
z"/>
<path fill="#0B0B0B" opacity="1.000000" stroke="none" 
	d="
M501.025146,298.789917 
	C496.273438,289.362793 497.117004,280.681763 503.371399,272.785187 
	C508.290161,266.574982 517.838745,264.076691 525.647583,267.110107 
	C529.340698,268.544708 532.504150,271.342712 536.032104,273.602783 
	C536.599854,266.356964 537.203979,258.647186 537.830566,250.650024 
	C539.611389,250.650024 541.154419,250.650024 543.441406,250.650024 
	C542.012207,270.454590 540.607605,289.918793 539.174500,309.777802 
	C537.215027,309.649567 535.819763,309.558258 534.191528,309.451691 
	C534.191528,307.027985 534.191528,304.922119 534.191528,301.992004 
	C529.003540,307.014374 523.447693,309.457245 516.827637,308.646942 
	C510.200073,307.835724 504.865509,304.819855 501.025146,298.789917 
M529.801086,274.598022 
	C528.828247,273.966797 527.905029,273.236328 526.874451,272.720428 
	C520.355896,269.457367 512.778748,270.751465 508.150940,275.868011 
	C503.273560,281.260468 502.462585,290.697449 506.351715,296.805054 
	C509.960663,302.472656 517.532837,305.087494 524.369263,303.015839 
	C536.247131,299.416321 538.472717,282.480469 529.801086,274.598022 
z"/>
<path fill="#0D0D0D" opacity="1.000000" stroke="none" 
	d="
M434.243103,304.570190 
	C430.229126,296.157684 429.766541,288.117096 435.332825,280.691650 
	C440.238342,274.147675 447.179626,271.840851 455.194611,272.899292 
	C463.814667,274.037689 470.262146,280.919159 471.737549,290.498901 
	C460.743774,293.446350 449.727142,296.399963 438.396271,299.437775 
	C440.028748,305.146118 443.846832,308.479126 449.150696,309.565552 
	C457.468506,311.269287 464.083008,308.049805 469.048920,300.849884 
	C470.372864,301.754639 471.567230,302.570831 472.744843,303.375580 
	C464.848297,318.396118 444.026093,319.139282 434.243103,304.570190 
M461.396484,288.885956 
	C462.725006,288.464752 464.053528,288.043549 465.397552,287.617432 
	C462.133118,279.354645 455.140961,275.811188 447.343597,278.135406 
	C439.713562,280.409790 435.780304,287.136719 437.573517,295.200104 
	C445.247772,293.142426 452.913025,291.087158 461.396484,288.885956 
z"/>
<path fill="#0D0D0D" opacity="1.000000" stroke="none" 
	d="
M598.249023,328.013733 
	C599.774536,313.909821 601.251465,300.230774 602.740784,286.437836 
	C607.215576,287.234131 608.046448,289.406860 607.491028,293.468201 
	C605.987244,304.464874 605.064026,315.540955 603.806213,327.584473 
	C613.557434,320.456665 622.711182,313.964813 631.615112,307.146667 
	C634.641479,304.829285 637.013367,304.322723 639.879395,307.592377 
	C628.247742,316.085632 616.664551,324.627930 604.976013,333.023804 
	C601.716492,335.365112 598.378845,332.995728 598.249023,328.013733 
z"/>
<path fill="#0C0C0C" opacity="1.000000" stroke="none" 
	d="
M670.593994,361.602234 
	C679.934570,354.095673 689.010559,346.828613 698.345825,339.353912 
	C699.571960,340.745392 700.625244,341.940765 702.067078,343.577026 
	C686.731079,355.931030 671.517456,368.186432 655.935608,380.738495 
	C654.675659,379.276367 653.559998,377.981689 652.219116,376.425659 
	C658.434937,371.420105 664.382141,366.630920 670.593994,361.602234 
z"/>
<path fill="#0C0C0C" opacity="1.000000" stroke="none" 
	d="
M418.431091,283.708008 
	C419.118500,285.048065 419.575409,286.107086 420.021667,287.141388 
	C409.611206,295.056854 408.634735,298.989441 414.186859,310.755035 
	C416.797302,316.286957 419.486237,321.781799 422.238922,327.499756 
	C420.571228,328.359497 419.122131,329.106567 417.187500,330.103912 
	C411.158417,317.555847 405.156189,305.063629 399.024841,292.302704 
	C400.541199,291.475922 401.961914,290.701263 403.552429,289.834045 
	C404.715729,291.787231 405.765778,293.550293 407.019958,295.656036 
	C409.153320,289.607574 411.640381,284.590118 418.431091,283.708008 
z"/>
<path fill="#0B0B0B" opacity="1.000000" stroke="none" 
	d="
M714.068726,526.836792 
	C707.266296,525.734192 700.882568,524.702759 694.146545,523.614380 
	C694.525696,521.669128 694.859436,519.956970 695.209473,518.161072 
	C702.257874,519.190308 708.983093,520.133850 715.695129,521.163330 
	C722.420227,522.194763 729.132141,523.312012 736.449097,524.487915 
	C736.235779,526.276550 736.035400,527.956543 735.822205,529.744019 
	C733.466614,529.438965 731.510437,529.185608 730.308838,529.029968 
	C731.829956,534.017212 733.390747,539.134521 735.246826,545.219849 
	C732.094604,545.006714 730.561707,544.903076 729.069336,544.802185 
	C728.298218,532.215881 725.468201,528.803040 714.068726,526.836792 
z"/>
<path fill="#F8F8F8" opacity="1.000000" stroke="none" 
	d="
M341.378418,386.683105 
	C341.412079,386.903473 341.228912,387.302277 340.899994,387.474609 
	C340.890015,387.119263 341.025818,386.990417 341.378418,386.683105 
z"/>
<path fill="#F8F8F8" opacity="1.000000" stroke="none" 
	d="
M361.043915,361.959473 
	C361.386566,362.072266 361.560638,362.355804 361.734711,362.639343 
	C361.482513,362.688110 361.230316,362.736877 360.763214,362.633545 
	C360.548309,362.481476 360.875336,362.130219 361.043915,361.959473 
z"/>
<path fill="#F6F6F6" opacity="1.000000" stroke="none" 
	d="
M709.361816,427.515015 
	C719.938538,428.201874 725.816040,433.633972 726.115601,442.568359 
	C726.396790,450.953186 720.649780,457.492737 711.771301,458.891022 
	C703.579834,460.181122 696.209106,455.552460 694.092957,447.789246 
	C691.829285,439.485229 695.576660,432.034851 703.687683,428.931763 
	C705.374329,428.286499 707.207947,428.025391 709.361816,427.515015 
M706.072266,454.971252 
	C707.071045,454.972321 708.069885,454.974457 709.068665,454.974335 
	C716.933228,454.973358 721.462769,449.976837 722.145447,442.339203 
	C722.657104,436.613861 718.477966,434.805145 715.432983,432.138367 
	C711.003601,428.259064 698.746094,433.403961 698.042542,439.203491 
	C697.231262,445.890808 697.685364,452.053253 706.072266,454.971252 
z"/>
<path fill="#F7F7F7" opacity="1.000000" stroke="none" 
	d="
M724.591064,476.971436 
	C731.749207,481.241455 734.274902,486.517883 732.947815,493.762543 
	C731.857422,499.714722 727.441223,503.710358 719.782715,505.067322 
	C719.782715,495.431396 719.782715,485.918793 719.782715,475.895569 
	C720.907715,476.136566 722.559326,476.490387 724.591064,476.971436 
M724.481934,482.257233 
	C724.481934,487.737640 724.481934,493.218048 724.481934,498.737000 
	C729.525269,495.997345 729.763306,488.883179 724.481934,482.257233 
z"/>
<path fill="#F7F7F7" opacity="1.000000" stroke="none" 
	d="
M679.018433,382.963440 
	C692.239319,372.659302 704.927002,381.398621 706.103210,392.449890 
	C706.921631,400.138947 702.381897,406.485168 694.255005,409.363068 
	C687.279541,411.833191 680.366638,409.577820 676.311646,403.509064 
	C671.823181,396.791534 672.638245,389.926605 679.018433,382.963440 
M678.289734,399.718323 
	C681.456909,402.222931 684.582397,404.783844 687.826111,407.185089 
	C688.483093,407.671387 689.911316,408.009644 690.430847,407.639587 
	C693.329529,405.574799 696.068298,403.283691 698.841309,401.044739 
	C700.645752,399.587830 702.286072,388.251862 700.519409,387.376312 
	C696.821533,385.543671 692.832275,383.596771 688.835205,383.273773 
	C685.082642,382.970520 680.525879,383.797058 679.530212,388.972626 
	C678.898987,392.253510 678.540771,395.586884 678.289734,399.718323 
z"/>
<path fill="#F7F7F7" opacity="1.000000" stroke="none" 
	d="
M306.062866,459.752075 
	C315.004395,464.769562 314.677399,476.523590 310.492401,482.280975 
	C305.582245,489.035980 294.592529,490.597107 287.145447,485.500641 
	C280.472290,480.933807 278.654785,471.290131 283.124237,464.164368 
	C287.522614,457.151917 296.364258,455.348053 306.062866,459.752075 
M309.975403,472.438324 
	C308.970215,470.429718 308.175476,468.276245 306.914246,466.443878 
	C304.578888,463.051056 293.175018,460.149963 289.907379,462.257782 
	C288.299530,463.294891 286.418335,465.176147 286.211456,466.865295 
	C285.710663,470.953705 285.576050,475.271851 286.439972,479.248352 
	C286.769287,480.764038 290.291321,481.504822 292.254181,482.761444 
	C299.351929,487.305176 309.180725,482.082520 309.975403,472.438324 
z"/>
<path fill="#F8F8F8" opacity="1.000000" stroke="none" 
	d="
M657.044312,327.773071 
	C664.385742,334.720825 665.265564,340.875305 660.015076,349.062744 
	C656.307739,345.751343 652.644531,342.492126 648.995911,339.216705 
	C645.425781,336.011780 641.870361,332.790314 638.302856,329.570984 
	C643.786072,324.073639 649.365601,323.496185 657.044312,327.773071 
M646.507263,331.078003 
	C650.148560,333.987915 653.789917,336.897797 657.840027,340.134430 
	C657.871704,331.983368 652.012146,327.788300 646.507263,331.078003 
z"/>
<path fill="#F7F7F7" opacity="1.000000" stroke="none" 
	d="
M377.659180,332.786560 
	C382.253754,329.177246 386.581757,325.822876 391.045166,322.363586 
	C394.959778,325.901398 397.157928,329.632812 395.443848,334.764160 
	C393.607147,340.262665 389.794403,344.037537 384.209229,344.878815 
	C381.790955,345.243073 378.363922,343.764771 376.521637,341.968231 
	C373.713257,339.229553 374.995880,335.836731 377.659180,332.786560 
M382.023560,333.544434 
	C381.669830,334.425049 381.347046,335.319611 380.956970,336.183838 
	C379.312469,339.827454 379.547150,341.330811 384.272705,340.112885 
	C390.041412,338.626099 391.573242,336.528961 390.389282,328.685699 
	C387.637817,330.251862 385.149689,331.668121 382.023560,333.544434 
z"/>
<path fill="#F5F5F5" opacity="1.000000" stroke="none" 
	d="
M584.293823,298.633667 
	C575.124268,295.713226 566.335510,292.899780 557.524841,290.079285 
	C560.642517,282.380585 567.170044,279.002838 574.624268,280.975708 
	C582.041565,282.938812 586.734680,289.553223 585.837708,296.911560 
	C585.758850,297.558899 585.076599,298.132690 584.293823,298.633667 
M576.726685,292.865112 
	C577.793213,292.312866 578.859680,291.760620 579.926147,291.208374 
	C578.216309,289.482666 576.743652,286.715210 574.744446,286.259888 
	C571.177246,285.447449 567.292053,286.031311 563.539795,286.031311 
	C563.405945,286.567444 563.272034,287.103607 563.138184,287.639740 
	C565.541016,288.416931 567.963501,289.139130 570.340515,289.988525 
	C572.293579,290.686401 574.192688,291.535431 576.726685,292.865112 
z"/>
<path fill="#F6F6F6" opacity="1.000000" stroke="none" 
	d="
M530.084473,274.842224 
	C538.472717,282.480469 536.247131,299.416321 524.369263,303.015839 
	C517.532837,305.087494 509.960663,302.472656 506.351715,296.805054 
	C502.462585,290.697449 503.273560,281.260468 508.150940,275.868011 
	C512.778748,270.751465 520.355896,269.457367 526.874451,272.720428 
	C527.905029,273.236328 528.828247,273.966797 530.084473,274.842224 
M508.973236,284.088715 
	C505.154205,294.876678 511.243652,300.680023 525.019592,299.768036 
	C527.356384,296.628479 529.959290,293.896149 531.587158,290.671661 
	C532.647095,288.571991 533.472229,284.679169 532.355835,283.452637 
	C528.108276,278.785889 523.650085,273.982391 515.899597,275.878143 
	C512.145081,276.796478 509.231750,278.950745 508.973236,284.088715 
z"/>
<path fill="#F5F5F5" opacity="1.000000" stroke="none" 
	d="
M460.987366,288.958923 
	C452.913025,291.087158 445.247772,293.142426 437.573517,295.200104 
	C435.780304,287.136719 439.713562,280.409790 447.343597,278.135406 
	C455.140961,275.811188 462.133118,279.354645 465.397552,287.617432 
	C464.053528,288.043549 462.725006,288.464752 460.987366,288.958923 
M451.918915,287.250305 
	C453.942017,286.254028 455.965118,285.257782 458.157532,284.178131 
	C451.619415,279.513306 446.645844,282.552124 441.927002,286.210510 
	C441.180756,286.789062 441.311462,288.498779 440.684906,291.205078 
	C445.220551,289.839783 448.352478,288.897003 451.918915,287.250305 
z"/>
<path fill="#47704C" opacity="1.000000" stroke="none" 
	d="
M705.651306,454.960907 
	C697.685364,452.053253 697.231262,445.890808 698.042542,439.203491 
	C698.746094,433.403961 711.003601,428.259064 715.432983,432.138367 
	C718.477966,434.805145 722.657104,436.613861 722.145447,442.339203 
	C721.462769,449.976837 716.933228,454.973358 709.068665,454.974335 
	C708.069885,454.974457 707.071045,454.972321 705.651306,454.960907 
z"/>
<path fill="#47704C" opacity="1.000000" stroke="none" 
	d="
M724.786987,482.483826 
	C729.763306,488.883179 729.525269,495.997345 724.481934,498.737000 
	C724.481934,493.218048 724.481934,487.737640 724.786987,482.483826 
z"/>
<path fill="#47704C" opacity="1.000000" stroke="none" 
	d="
M678.174927,399.307526 
	C678.540771,395.586884 678.898987,392.253510 679.530212,388.972626 
	C680.525879,383.797058 685.082642,382.970520 688.835205,383.273773 
	C692.832275,383.596771 696.821533,385.543671 700.519409,387.376312 
	C702.286072,388.251862 700.645752,399.587830 698.841309,401.044739 
	C696.068298,403.283691 693.329529,405.574799 690.430847,407.639587 
	C689.911316,408.009644 688.483093,407.671387 687.826111,407.185089 
	C684.582397,404.783844 681.456909,402.222931 678.174927,399.307526 
z"/>
<path fill="#47704C" opacity="1.000000" stroke="none" 
	d="
M309.975403,472.870605 
	C309.180725,482.082520 299.351929,487.305176 292.254181,482.761444 
	C290.291321,481.504822 286.769287,480.764038 286.439972,479.248352 
	C285.576050,475.271851 285.710663,470.953705 286.211456,466.865295 
	C286.418335,465.176147 288.299530,463.294891 289.907379,462.257782 
	C293.175018,460.149963 304.578888,463.051056 306.914246,466.443878 
	C308.175476,468.276245 308.970215,470.429718 309.975403,472.870605 
z"/>
<path fill="#47704C" opacity="1.000000" stroke="none" 
	d="
M646.159302,330.965240 
	C652.012146,327.788300 657.871704,331.983368 657.840027,340.134430 
	C653.789917,336.897797 650.148560,333.987915 646.159302,330.965240 
z"/>
<path fill="#47704C" opacity="1.000000" stroke="none" 
	d="
M382.342529,333.314392 
	C385.149689,331.668121 387.637817,330.251862 390.389282,328.685699 
	C391.573242,336.528961 390.041412,338.626099 384.272705,340.112885 
	C379.547150,341.330811 379.312469,339.827454 380.956970,336.183838 
	C381.347046,335.319611 381.669830,334.425049 382.342529,333.314392 
z"/>
<path fill="#47704C" opacity="1.000000" stroke="none" 
	d="
M576.421143,292.591309 
	C574.192688,291.535431 572.293579,290.686401 570.340515,289.988525 
	C567.963501,289.139130 565.541016,288.416931 563.138184,287.639740 
	C563.272034,287.103607 563.405945,286.567444 563.539795,286.031311 
	C567.292053,286.031311 571.177246,285.447449 574.744446,286.259888 
	C576.743652,286.715210 578.216309,289.482666 579.926147,291.208374 
	C578.859680,291.760620 577.793213,292.312866 576.421143,292.591309 
z"/>
<path fill="#47704C" opacity="1.000000" stroke="none" 
	d="
M508.995605,283.667603 
	C509.231750,278.950745 512.145081,276.796478 515.899597,275.878143 
	C523.650085,273.982391 528.108276,278.785889 532.355835,283.452637 
	C533.472229,284.679169 532.647095,288.571991 531.587158,290.671661 
	C529.959290,293.896149 527.356384,296.628479 525.019592,299.768036 
	C511.243652,300.680023 505.154205,294.876678 508.995605,283.667603 
z"/>
<path fill="#47704C" opacity="1.000000" stroke="none" 
	d="
M451.701660,287.602295 
	C448.352478,288.897003 445.220551,289.839783 440.684906,291.205078 
	C441.311462,288.498779 441.180756,286.789062 441.927002,286.210510 
	C446.645844,282.552124 451.619415,279.513306 458.157532,284.178131 
	C455.965118,285.257782 453.942017,286.254028 451.701660,287.602295 
z"/>
</svg>