<svg id="Layer_1" data-name="Layer 1" xmlns="http://www.w3.org/2000/svg" viewBox="0 0 500 500"><defs><style>.cls-1{font-size:55px;fill:#fcfcfc;font-family:Poppins-Medium, Poppins;font-weight:500;}</style></defs><text class="cls-1" transform="translate(100.96 251.34) rotate(-79.96)">W</text><text class="cls-1" transform="translate(111.21 199.98) rotate(-63.53)">e</text><text class="cls-1" transform="matrix(0.64, -0.77, 0.77, 0.64, 125.1, 171.17)">b</text><text class="cls-1" transform="translate(148.48 144.13) rotate(-41.03)"> </text><text class="cls-1" transform="matrix(0.85, -0.52, 0.52, 0.85, 157.42, 134.8)">D</text><text class="cls-1" transform="translate(188.99 115.68) rotate(-17.81)">e</text><text class="cls-1" transform="translate(219.52 105.8) rotate(-5.7)">v</text><text class="cls-1" transform="matrix(0.99, 0.11, -0.11, 0.99, 249.21, 102.53)">e</text><text class="cls-1" transform="translate(281.41 106.69) rotate(15.16)">l</text><text class="cls-1" transform="translate(294.33 109.22) rotate(24.34)">o</text><text class="cls-1" transform="translate(324.64 122.55) rotate(37.65)">p</text><text class="cls-1" transform="matrix(0.63, 0.77, -0.77, 0.63, 352.61, 144.07)">e</text><text class="cls-1" transform="translate(372.77 169.33) rotate(60.76)">r</text><text class="cls-1" transform="matrix(0.39, 0.92, -0.92, 0.39, 382.44, 186.89)"> </text><text class="cls-1" transform="matrix(0.3, 0.95, -0.95, 0.3, 387.67, 199.29)"> </text><text class="cls-1" transform="matrix(0.21, 0.98, -0.98, 0.21, 391.72, 212.13)">.</text><text class="cls-1" transform="translate(394.43 224.28) rotate(82.77)"> </text><text class="cls-1" transform="translate(396.16 237.6) rotate(87.98)"> </text><text class="cls-1" transform="translate(399.05 250.17) rotate(100.62)">W</text><text class="cls-1" transform="translate(388.28 301.41) rotate(117.05)">e</text><text class="cls-1" transform="translate(374.09 330.09) rotate(130.12)">b</text><text class="cls-1" transform="matrix(-0.76, 0.65, -0.65, -0.76, 350.44, 356.89)"> </text><text class="cls-1" transform="matrix(-0.86, 0.51, -0.51, -0.86, 341.43, 366.12)">D</text><text class="cls-1" transform="translate(309.64 384.93) rotate(162.78)">e</text><text class="cls-1" transform="matrix(-1, 0.09, -0.09, -1, 279.02, 394.5)">v</text><text class="cls-1" transform="translate(249.31 397.47) rotate(-173.2)">e</text><text class="cls-1" transform="matrix(-0.96, -0.27, 0.27, -0.96, 217.15, 392.99)">l</text><text class="cls-1" transform="translate(204.26 390.33) rotate(-155.08)">o</text><text class="cls-1" transform="translate(174.07 376.69) rotate(-141.77)">p</text><text class="cls-1" transform="matrix(-0.63, -0.78, 0.78, -0.63, 146.33, 354.88)">e</text><text class="cls-1" transform="matrix(-0.48, -0.88, 0.88, -0.48, 126.42, 329.41)">r</text><text class="cls-1" transform="translate(116.91 311.74) rotate(-112.11)"> </text><text class="cls-1" transform="translate(111.84 299.28) rotate(-107.02)">.</text></svg>